# xmcd
#
# Track frame offsets: 
#        150
#        2035
#        8640
#        28465
#        51978
#        69131
#        91458
#        103432
#        125156
#        142633
#        159916
#        178889
#        195714
#        218454
#        239445
#        256422
#        270324
#        285556
#        300514
#
# Disc length: 4287 seconds
#
# Revision: 2
# Processed by: cddbd v1.5.2PL0 Copyright (c) Steve Scherf et al.
# Submitted via: ExactAudioCopy v0.95b4
#
DISCID=0610bd13
DTITLE=Louis Armstrong - The Armstrong Box - Louis Armstrong and his A
DTITLE=ll Stars 1947-1967
DYEAR=2011
DGENRE=Blues
TTITLE0=Intro
TTITLE1=When It's Sleepy Time Down South
TTITLE2=Panama
TTITLE3=Back O' Town Blues
TTITLE4=Pale Moon
TTITLE5=Don't Fence Me In
TTITLE6=Lover
TTITLE7=Body And Soul
TTITLE8=A Song Was Born
TTITLE9=Whispering
TTITLE10=Mahogany Hall Stomp
TTITLE11=Me And Brother Bill
TTITLE12=C Jam Blues
TTITLE13=A Hundred Years From Today
TTITLE14=Boogie Woogie On St. Louis Blues
TTITLE15=Blue Skies
TTITLE16=Rockin' Chair
TTITLE17=The Sheik Of Araby
TTITLE18=Confessin'
EXTD=
EXTT0=
EXTT1=
EXTT2=
EXTT3=
EXTT4=
EXTT5=
EXTT6=
EXTT7=
EXTT8=
EXTT9=
EXTT10=
EXTT11=
EXTT12=
EXTT13=
EXTT14=
EXTT15=
EXTT16=
EXTT17=
EXTT18=
PLAYORDER=
